<?xml version="1.0" standalone="no"?>
<!DOCTYPE svg PUBLIC "-//W3C//DTD SVG 20010904//EN"
 "http://www.w3.org/TR/2001/REC-SVG-20010904/DTD/svg10.dtd">
<svg version="1.0" xmlns="http://www.w3.org/2000/svg"
 width="228.000000pt" height="228.000000pt" viewBox="0 0 228.000000 228.000000"
 preserveAspectRatio="xMidYMid meet">
<metadata>
Created by potrace 1.14, written by Peter Selinger 2001-2017
</metadata>
<g transform="translate(0.000000,228.000000) scale(0.100000,-0.100000)"
fill="#000000" stroke="none">
<path d="M1896 1900 l-238 -97 -87 35 c-47 19 -99 40 -116 47 -16 7 -66 28
-110 46 l-80 32 -578 1 -578 2 -54 -53 -55 -53 0 -173 0 -173 53 -52 53 -52
572 0 571 0 205 82 205 81 108 -42 c59 -23 117 -46 128 -51 11 -5 75 -32 143
-59 l123 -50 14 32 c52 125 64 162 58 168 -5 4 -70 32 -146 62 -121 47 -135
55 -115 64 13 6 77 32 143 58 66 27 121 49 123 51 2 1 -14 45 -34 98 -26 65
-43 96 -54 95 -8 -1 -122 -45 -254 -99z m-615 -175 c38 -15 71 -30 74 -34 2
-5 -30 -22 -73 -38 l-77 -31 -495 2 -495 1 -2 62 -3 63 243 2 c133 2 358 2
501 1 252 -2 260 -3 327 -28z"/>
<path d="M51 1059 c-14 -6 -17 -21 -16 -110 l0 -104 1120 0 1120 0 0 103 c0
57 -2 106 -5 110 -6 9 -2195 9 -2219 1z"/>
<path d="M36 490 c-1 -3 -2 -52 -2 -110 l1 -105 1120 0 1120 0 0 95 c1 52 -1
102 -3 110 -3 13 -134 15 -1118 15 -614 0 -1117 -2 -1118 -5z"/>
</g>
</svg>
