<svg width="274" height="52" viewBox="0 0 274 52" fill="none" xmlns="http://www.w3.org/2000/svg">
<path d="M272.893 33.2875C273.053 33.5087 273.106 33.7576 273.053 34.0341C273.026 34.3106 272.906 34.5457 272.692 34.7393C271.971 35.3476 271.397 35.8592 270.969 36.274C270.542 36.6888 270.168 37.0621 269.847 37.394C269.553 37.6981 269.246 38.0162 268.926 38.348C268.632 38.6798 268.258 39.0946 267.804 39.5924C267.349 40.0625 266.735 40.657 265.96 41.376C264.811 42.8969 263.449 44.4317 261.873 45.9803C260.297 47.5012 258.841 49.0498 257.505 50.626C257.184 50.9578 256.797 51.1929 256.343 51.3311C255.889 51.4418 255.448 51.4832 255.02 51.4556C254.593 51.4279 254.205 51.2344 253.858 50.8749C253.725 50.7366 253.604 50.7228 253.497 50.8334C253.471 50.861 253.431 50.8749 253.377 50.8749C253.27 50.8472 253.217 50.7781 253.217 50.6675C253.19 50.1421 253.377 49.672 253.778 49.2572C254.179 48.8147 254.513 48.3584 254.78 47.8883C254.86 47.7501 254.94 47.6256 255.02 47.515C255.127 47.4044 255.234 47.3076 255.341 47.2247C255.822 46.8099 256.236 46.2844 256.583 45.6484C256.663 45.5102 256.757 45.3857 256.864 45.2751C256.97 45.1645 257.091 45.0677 257.224 44.9847C257.865 44.5146 258.4 43.9616 258.827 43.3256C259.281 42.6895 259.829 42.1365 260.47 41.6664C260.55 41.6111 260.617 41.5558 260.671 41.5005C260.751 41.4175 260.817 41.3484 260.871 41.2931C261.592 40.4082 262.193 39.6753 262.674 39.0946C263.182 38.5139 263.636 38.0162 264.037 37.6014C264.437 37.1866 264.851 36.7856 265.279 36.3984C265.733 35.9836 266.254 35.5274 266.842 35.0296C267.429 34.5319 268.178 33.9097 269.086 33.163C269.273 33.0248 269.46 32.9141 269.647 32.8312C270.048 32.6653 270.435 32.5132 270.809 32.3749C271.183 32.2366 271.57 32.292 271.971 32.5408C272.025 32.5685 272.091 32.5961 272.171 32.6238C272.252 32.6514 272.318 32.6929 272.372 32.7482C272.532 32.8035 272.706 32.9833 272.893 33.2875ZM257.024 35.4029C257.157 35.6518 257.171 35.9145 257.064 36.191C256.957 36.4676 256.77 36.6473 256.503 36.7303C256.476 36.7579 256.45 36.7718 256.423 36.7718C256.396 36.7718 256.356 36.7856 256.303 36.8132C256.196 36.8685 256.089 36.91 255.982 36.9377C255.875 36.9653 255.755 36.993 255.621 37.0206C255.381 37.0483 255.154 37.1036 254.94 37.1866C254.753 37.2695 254.539 37.2972 254.299 37.2695C253.631 37.1589 253.057 36.8271 252.576 36.274C252.122 35.6933 251.641 35.2232 251.133 34.8637C250.946 34.6978 250.866 34.518 250.893 34.3245C250.946 34.0756 251.066 33.9373 251.253 33.9097C251.948 33.7161 252.683 33.6331 253.457 33.6608C254.259 33.6608 254.98 33.7991 255.621 34.0756C256.289 34.3521 256.757 34.7946 257.024 35.4029Z" fill="#262626"/>
<path d="M246.346 35.8068C246.318 36.4236 246.262 37.0789 246.179 37.7728C246.123 38.4667 246.04 39.122 245.928 39.7388C245.845 40.3556 245.664 41.0109 245.385 41.7048C245.135 42.3987 244.898 43.1119 244.675 43.8443C244.647 43.9214 244.647 44.037 244.675 44.1912C244.703 44.3069 244.703 44.4032 244.675 44.4803C244.369 45.4441 244.021 46.4078 243.631 47.3715C243.269 48.2967 242.865 49.1255 242.42 49.858C242.169 50.282 241.863 50.4555 241.501 50.3784C241.195 50.3784 240.972 50.1471 240.833 49.6845C240.805 49.6459 240.791 49.5688 240.791 49.4532C240.735 49.299 240.652 49.2604 240.54 49.3375C240.429 49.4146 240.345 49.3761 240.29 49.2219C240.067 48.6822 239.886 48.2196 239.747 47.8341C239.635 47.4101 239.552 46.9282 239.496 46.3885C239.44 45.8103 239.579 45.3284 239.914 44.9429C240.192 44.6345 240.415 44.2298 240.582 43.7286C241.111 42.071 241.626 40.3941 242.127 38.698C242.656 36.9633 242.977 35.0936 243.088 33.0891C243.116 32.7036 243.032 32.3566 242.837 32.0482C242.67 31.7398 242.448 31.5664 242.169 31.5278C241.779 31.4507 241.376 31.4122 240.958 31.4122C240.568 31.3736 240.136 31.3736 239.663 31.4122C239.05 31.4893 238.563 31.8555 238.201 32.5108C237.756 33.3975 237.421 34.207 237.199 34.9394C237.004 35.6333 236.711 36.5392 236.322 37.6571C236.238 37.8499 236.141 38.0426 236.029 38.2354C235.918 38.4281 235.792 38.6209 235.653 38.8136C235.486 38.9678 235.403 39.2377 235.403 39.6231C235.347 40.0857 235.249 40.4712 235.11 40.7796C234.776 41.6663 234.414 42.5914 234.024 43.5552C233.662 44.4803 233.37 45.3862 233.147 46.2729C233.119 46.5427 233.036 46.7933 232.896 47.0246C232.869 47.0631 232.841 47.121 232.813 47.1981C232.813 47.2366 232.799 47.2944 232.771 47.3715C232.66 47.7185 232.59 48.0461 232.562 48.3545C232.534 48.74 232.437 49.1255 232.27 49.511C232.131 49.8965 231.978 50.2434 231.81 50.5518C231.755 50.6675 231.755 50.7639 231.81 50.841C231.866 50.9181 231.908 50.9373 231.936 50.8988C232.019 50.8217 232.061 50.8602 232.061 51.0144C232.033 51.0915 231.922 51.265 231.727 51.5348C231.532 51.8047 231.295 51.9011 231.017 51.824C230.738 51.7854 230.53 51.5927 230.39 51.2457C230.307 51.0915 230.209 50.9566 230.098 50.841C229.625 50.3013 229.346 49.6074 229.263 48.7593C229.151 47.6414 229.263 46.5234 229.597 45.4055C229.931 44.2876 230.307 43.2082 230.725 42.1674C231.142 41.088 231.435 40.0665 231.602 39.1027C231.629 38.91 231.671 38.7365 231.727 38.5823C231.783 38.4281 231.838 38.2739 231.894 38.1197C232.312 37.2331 232.604 36.5199 232.771 35.9803C232.966 35.402 233.203 34.7467 233.481 34.0142C233.565 33.8215 233.551 33.6288 233.439 33.436C233.328 33.2433 233.189 33.1854 233.022 33.2625C232.131 33.648 231.226 33.648 230.307 33.2625C229.416 32.8385 228.817 32.0675 228.511 30.9496C228.288 30.1015 228.455 29.4462 229.012 28.9836C230.042 28.2512 231.1 27.7307 232.186 27.4223C233.272 27.0754 234.372 26.767 235.486 26.4972C236.099 26.3815 236.6 25.9575 236.99 25.225C237.435 24.3384 237.853 23.4325 238.243 22.5073C238.633 21.5436 239.106 20.6955 239.663 19.9631C239.858 19.7318 240.081 19.6547 240.331 19.7318C240.582 19.8089 240.763 20.0016 240.874 20.31C240.874 20.3486 240.874 20.3871 240.874 20.4257C240.902 20.4257 240.916 20.4257 240.916 20.4257C241.167 20.9654 241.264 21.6014 241.208 22.3339C241.181 23.0277 241.097 23.7602 240.958 24.5312C240.819 25.3021 240.679 25.8997 240.54 26.3237C240.484 26.4393 240.484 26.555 240.54 26.6706C240.596 26.7863 240.679 26.8248 240.791 26.7863C240.874 26.7863 240.958 26.7863 241.041 26.7863C241.125 26.7863 241.208 26.8056 241.292 26.8441C241.793 27.114 242.42 27.3067 243.172 27.4223C243.923 27.538 244.494 27.75 244.884 28.0584C245.608 28.8679 246.054 29.6775 246.221 30.487C246.416 31.2965 246.485 32.1446 246.43 33.0312C246.402 33.8793 246.374 34.8045 246.346 35.8068Z" fill="#262626"/>
<path d="M223.702 33.2875C223.862 33.5087 223.915 33.7576 223.862 34.0341C223.835 34.3106 223.715 34.5457 223.501 34.7393C222.78 35.3476 222.206 35.8592 221.778 36.274C221.351 36.6888 220.977 37.0621 220.656 37.394C220.362 37.6981 220.055 38.0162 219.735 38.348C219.441 38.6798 219.067 39.0946 218.612 39.5924C218.158 40.0625 217.544 40.657 216.769 41.376C215.62 42.8969 214.258 44.4317 212.682 45.9803C211.106 47.5012 209.65 49.0498 208.314 50.626C207.993 50.9578 207.606 51.1929 207.152 51.3311C206.697 51.4418 206.257 51.4832 205.829 51.4556C205.402 51.4279 205.014 51.2344 204.667 50.8749C204.534 50.7366 204.413 50.7228 204.306 50.8334C204.28 50.861 204.24 50.8749 204.186 50.8749C204.079 50.8472 204.026 50.7781 204.026 50.6675C203.999 50.1421 204.186 49.672 204.587 49.2572C204.988 48.8147 205.322 48.3584 205.589 47.8883C205.669 47.7501 205.749 47.6256 205.829 47.515C205.936 47.4044 206.043 47.3076 206.15 47.2247C206.631 46.8099 207.045 46.2844 207.392 45.6484C207.472 45.5102 207.566 45.3857 207.673 45.2751C207.779 45.1645 207.9 45.0677 208.033 44.9847C208.674 44.5146 209.209 43.9616 209.636 43.3256C210.09 42.6895 210.638 42.1365 211.279 41.6664C211.359 41.6111 211.426 41.5558 211.48 41.5005C211.56 41.4175 211.626 41.3484 211.68 41.2931C212.401 40.4082 213.002 39.6753 213.483 39.0946C213.991 38.5139 214.445 38.0162 214.846 37.6014C215.246 37.1866 215.66 36.7856 216.088 36.3984C216.542 35.9836 217.063 35.5274 217.651 35.0296C218.238 34.5319 218.987 33.9097 219.895 33.163C220.082 33.0248 220.269 32.9141 220.456 32.8312C220.857 32.6653 221.244 32.5132 221.618 32.3749C221.992 32.2366 222.379 32.292 222.78 32.5408C222.834 32.5685 222.9 32.5961 222.98 32.6238C223.061 32.6514 223.127 32.6929 223.181 32.7482C223.341 32.8035 223.515 32.9833 223.702 33.2875ZM207.833 35.4029C207.966 35.6518 207.98 35.9145 207.873 36.191C207.766 36.4676 207.579 36.6473 207.312 36.7303C207.285 36.7579 207.259 36.7718 207.232 36.7718C207.205 36.7718 207.165 36.7856 207.112 36.8132C207.005 36.8685 206.898 36.91 206.791 36.9377C206.684 36.9653 206.564 36.993 206.43 37.0206C206.19 37.0483 205.963 37.1036 205.749 37.1866C205.562 37.2695 205.348 37.2972 205.108 37.2695C204.44 37.1589 203.866 36.8271 203.385 36.274C202.931 35.6933 202.45 35.2232 201.942 34.8637C201.755 34.6978 201.675 34.518 201.702 34.3245C201.755 34.0756 201.875 33.9373 202.062 33.9097C202.757 33.7161 203.492 33.6331 204.266 33.6608C205.068 33.6608 205.789 33.7991 206.43 34.0756C207.098 34.3521 207.566 34.7946 207.833 35.4029Z" fill="#262626"/>
<path d="M180.663 32.6238C180.823 33.0939 180.743 33.564 180.423 34.0341C180.075 34.5042 179.648 34.7531 179.14 34.7808C178.766 34.8084 178.379 34.8361 177.978 34.8637C177.604 34.8914 177.244 34.9882 176.896 35.1541C176.282 35.4306 175.761 35.32 175.333 34.8222C175.227 34.7116 175.133 34.601 175.053 34.4904C174.973 34.3521 174.893 34.2277 174.813 34.1171C174.706 33.9512 174.545 33.7991 174.332 33.6608C174.118 33.4949 173.971 33.3428 173.891 33.2045C173.864 33.1492 173.891 33.0939 173.971 33.0386C174.051 32.9833 174.065 32.9418 174.011 32.9142C173.904 32.6653 173.757 32.4302 173.57 32.209C173.41 31.9601 173.383 31.6974 173.49 31.4209C173.624 31.1444 173.824 30.9784 174.091 30.9231C175.133 30.7019 176.082 30.6743 176.936 30.8402C177.818 30.9784 178.726 31.2273 179.661 31.5868C180.116 31.7527 180.449 32.0984 180.663 32.6238ZM196.813 39.2191C196.813 39.2744 196.799 39.3159 196.772 39.3435C196.051 40.2284 195.17 40.9889 194.128 41.6249C193.112 42.2333 192.151 42.9108 191.242 43.6574C189.853 44.8188 188.451 46.0079 187.035 47.2247C185.619 48.4138 184.283 49.6028 183.027 50.7919C182.573 51.2344 182.052 51.3865 181.465 51.2482C181.304 51.2205 181.144 51.1929 180.984 51.1652C180.823 51.1099 180.677 51.0685 180.543 51.0408C180.383 50.9855 180.329 50.8749 180.383 50.709C180.436 50.5983 180.383 50.543 180.222 50.543C179.928 50.5154 179.688 50.3771 179.501 50.1282C179.341 49.8794 179.301 49.6167 179.381 49.3401C179.434 49.1742 179.488 49.0083 179.541 48.8424C179.621 48.6765 179.715 48.5382 179.822 48.4276C180.303 47.7916 180.77 47.197 181.224 46.644C181.678 46.0909 182.239 45.607 182.907 45.1922C182.987 45.1369 183.054 45.0815 183.108 45.0262C183.188 44.9709 183.255 44.9156 183.308 44.8603C184.243 43.9201 185.245 43.0352 186.313 42.2056C187.409 41.3484 188.464 40.4911 189.479 39.6339C189.613 39.5509 189.733 39.468 189.84 39.385C189.973 39.302 190.12 39.2467 190.281 39.2191C190.575 39.1361 190.855 38.9287 191.122 38.5969C191.389 38.265 191.683 38.03 192.004 37.8917C192.137 37.8364 192.271 37.8226 192.405 37.8503C192.565 37.8503 192.698 37.8226 192.805 37.7673C192.939 37.712 193.086 37.629 193.246 37.5184C193.406 37.3801 193.58 37.2419 193.767 37.1036C194.248 36.6888 194.769 36.6197 195.33 36.8962C195.624 37.0345 195.891 37.2281 196.131 37.4769C196.372 37.6982 196.559 37.9747 196.692 38.3065C196.772 38.5278 196.772 38.7213 196.692 38.8872C196.639 38.9979 196.666 39.0808 196.772 39.1361C196.799 39.1361 196.813 39.1638 196.813 39.2191ZM181.024 38.5969C181.077 38.8734 181.051 39.1638 180.944 39.468C180.864 39.7445 180.703 39.9795 180.463 40.1731C179.955 40.6156 179.314 40.9059 178.539 41.0442C177.791 41.1825 177.083 41.3899 176.415 41.6664C175.881 41.8876 175.36 41.8047 174.853 41.4175C174.532 41.141 174.252 40.8368 174.011 40.505C173.797 40.1455 173.61 39.7583 173.45 39.3435C173.343 39.0946 173.343 38.8458 173.45 38.5969C173.557 38.3204 173.731 38.1268 173.971 38.0162C174.746 37.629 175.721 37.394 176.896 37.311C178.099 37.2004 179.154 37.2557 180.062 37.4769C180.623 37.5599 180.944 37.9332 181.024 38.5969Z" fill="#262626"/>
<path d="M168.266 42.3301C168.56 42.9108 168.547 43.4638 168.226 43.9893C168.093 44.2105 167.959 44.4732 167.825 44.7774C167.692 45.0539 167.558 45.3028 167.425 45.524C167.291 45.8005 167.077 45.9941 166.784 46.1047C166.516 46.1877 166.249 46.1877 165.982 46.1047C165.929 46.0771 165.862 46.0494 165.782 46.0218C165.728 45.9941 165.648 45.9665 165.541 45.9388C165.461 45.8835 165.381 45.8282 165.301 45.7729C165.221 45.7176 165.141 45.6761 165.06 45.6484C164.847 45.5378 164.7 45.3719 164.62 45.1507C164.539 44.9295 164.539 44.7221 164.62 44.5285C164.726 44.3073 164.686 44.1137 164.499 43.9478C164.339 43.7542 164.152 43.7127 163.938 43.8233C163.351 44.0722 163.03 44.487 162.977 45.0677C162.87 45.9803 162.816 46.962 162.816 48.0128C162.843 49.036 162.87 50.0453 162.896 51.0408C162.896 51.3173 162.803 51.5524 162.616 51.746C162.429 51.9395 162.202 52.0225 161.935 51.9948C161.534 51.9672 161.12 51.8842 160.692 51.746C160.292 51.6077 160.025 51.3726 159.891 51.0408C159.597 50.3495 159.504 49.5752 159.611 48.7179C159.744 47.833 159.824 47.0034 159.851 46.2292C159.851 45.9803 159.757 45.7729 159.57 45.607C159.41 45.441 159.223 45.3719 159.009 45.3996C158.448 45.4549 157.901 45.3996 157.366 45.2336C156.832 45.0401 156.325 44.8465 155.844 44.6529C155.657 44.5423 155.577 44.3902 155.603 44.1967C155.603 43.9754 155.697 43.8233 155.884 43.7404C156.338 43.4638 156.832 43.2288 157.366 43.0352C157.927 42.8416 158.502 42.6481 159.09 42.4545C159.33 42.3715 159.517 42.2195 159.651 41.9982C159.811 41.7493 159.891 41.4866 159.891 41.2101C159.891 40.6294 159.891 40.1455 159.891 39.7583C159.918 39.3435 159.958 38.8734 160.011 38.348C160.065 38.0715 160.198 37.8641 160.412 37.7258C160.626 37.5876 160.853 37.5737 161.093 37.6843C161.36 37.7673 161.574 37.8779 161.734 38.0162C162.269 38.348 162.576 38.8319 162.656 39.468C162.709 39.7445 162.75 39.8966 162.776 39.9242C162.83 39.9519 162.87 40.0487 162.896 40.2146C162.95 40.4358 163.07 40.6294 163.257 40.7953C163.471 40.9612 163.698 41.0442 163.938 41.0442C164.793 41.0165 165.635 41.0718 166.463 41.2101C167.291 41.3207 167.892 41.694 168.266 42.3301Z" fill="#262626"/>
<path d="M128.879 26.3292C129.091 26.9456 128.985 27.5619 128.56 28.1783C128.1 28.7946 127.534 29.121 126.861 29.1572C126.366 29.1935 125.853 29.2297 125.322 29.266C124.826 29.3022 124.349 29.4291 123.889 29.6467C123.074 30.0092 122.384 29.8642 121.818 29.2116C121.677 29.0666 121.553 28.9215 121.446 28.7765C121.34 28.5952 121.234 28.4321 121.128 28.2871C120.986 28.0695 120.774 27.8701 120.491 27.6888C120.208 27.4713 120.013 27.2719 119.907 27.0906C119.872 27.0181 119.907 26.9456 120.013 26.8731C120.119 26.8005 120.137 26.7462 120.066 26.7099C119.925 26.3836 119.73 26.0754 119.482 25.7854C119.27 25.4591 119.234 25.1146 119.376 24.7521C119.553 24.3895 119.818 24.172 120.172 24.0994C121.553 23.8094 122.809 23.7731 123.942 23.9907C125.11 24.172 126.313 24.4983 127.552 24.9696C128.153 25.1871 128.596 25.6403 128.879 26.3292ZM150.273 34.9764C150.273 35.0489 150.256 35.1033 150.22 35.1395C149.265 36.2997 148.097 37.2968 146.716 38.1307C145.371 38.9283 144.097 39.8166 142.894 40.7955C141.054 42.3183 139.196 43.8773 137.32 45.4726C135.444 47.0316 133.674 48.5906 132.011 50.1497C131.409 50.7298 130.719 50.9292 129.941 50.7479C129.728 50.7116 129.516 50.6754 129.303 50.6391C129.091 50.5666 128.896 50.5122 128.72 50.476C128.507 50.4035 128.436 50.2584 128.507 50.0409C128.578 49.8959 128.507 49.8234 128.295 49.8234C127.905 49.7871 127.587 49.6058 127.339 49.2795C127.127 48.9532 127.074 48.6088 127.18 48.2462C127.251 48.0287 127.322 47.8111 127.392 47.5936C127.498 47.376 127.622 47.1948 127.764 47.0497C128.401 46.2158 129.02 45.4363 129.622 44.7112C130.224 43.9861 130.967 43.3516 131.852 42.8077C131.958 42.7352 132.046 42.6627 132.117 42.5902C132.223 42.5177 132.312 42.4452 132.383 42.3727C133.621 41.1399 134.949 39.9797 136.364 38.8921C137.815 37.7681 139.213 36.6442 140.558 35.5202C140.735 35.4114 140.894 35.3027 141.036 35.1939C141.213 35.0851 141.408 35.0126 141.62 34.9764C142.009 34.8676 142.381 34.5957 142.735 34.1606C143.089 33.7255 143.478 33.4173 143.903 33.2361C144.08 33.1635 144.257 33.1454 144.434 33.1817C144.646 33.1817 144.823 33.1454 144.964 33.0729C145.141 33.0004 145.336 32.8916 145.548 32.7466C145.761 32.5653 145.991 32.384 146.239 32.2027C146.876 31.6589 147.566 31.5683 148.309 31.9308C148.698 32.1121 149.052 32.3659 149.371 32.6922C149.689 32.9823 149.937 33.3448 150.114 33.7799C150.22 34.07 150.22 34.3237 150.114 34.5413C150.043 34.6863 150.079 34.7951 150.22 34.8676C150.256 34.8676 150.273 34.9039 150.273 34.9764ZM129.357 34.1606C129.427 34.5232 129.392 34.9038 129.25 35.3027C129.144 35.6652 128.932 35.9734 128.613 36.2272C127.941 36.8073 127.091 37.188 126.065 37.3693C125.074 37.5506 124.136 37.8225 123.251 38.1851C122.544 38.4751 121.853 38.3663 121.181 37.8587C120.756 37.4962 120.385 37.0974 120.066 36.6623C119.783 36.191 119.535 35.6834 119.323 35.1395C119.181 34.8132 119.181 34.4869 119.323 34.1606C119.465 33.798 119.695 33.5442 120.013 33.3992C121.039 32.8916 122.331 32.5834 123.889 32.4747C125.481 32.3296 126.879 32.4022 128.082 32.6922C128.826 32.801 129.25 33.2904 129.357 34.1606Z" fill="#262626"/>
<path d="M91.2412 42.3093C91.0809 42.7518 90.8672 43.1665 90.6 43.5537C90.3329 43.9408 90.1192 44.328 89.9589 44.7151C89.852 44.964 89.7986 45.2129 89.7986 45.4618C89.7986 45.7106 89.7451 45.9457 89.6383 46.1669C89.5581 46.3052 89.4379 46.4434 89.2776 46.5817C89.1173 46.72 88.9971 46.8582 88.917 46.9965C88.8635 47.1624 88.8235 47.3422 88.7968 47.5357C88.7968 47.7017 88.77 47.8399 88.7166 47.9505C88.6632 48.0612 88.5563 48.1579 88.396 48.2409C88.2624 48.2962 88.1689 48.3653 88.1155 48.4483C87.9285 48.8354 87.7682 49.2226 87.6346 49.6097C87.5278 49.9969 87.4076 50.3564 87.274 50.6882C87.1671 50.9371 86.9801 51.1168 86.713 51.2274C86.4458 51.3104 86.192 51.2966 85.9516 51.186C85.0165 50.7159 84.4555 50.066 84.2685 49.2364C84.0815 48.4068 84.1216 47.5219 84.3887 46.5817C84.6826 45.6139 85.0299 44.7151 85.4306 43.8855C85.5642 43.6643 85.6844 43.4846 85.7913 43.3463C85.8981 43.208 86.0184 42.9868 86.1519 42.6826C86.4191 42.0466 86.6996 41.3553 86.9935 40.6086C87.2873 39.862 87.5411 39.226 87.7549 38.7006C88.022 38.1199 88.2624 37.6497 88.4762 37.2903C88.6899 36.9031 88.8368 36.4054 88.917 35.797C88.9704 35.5481 89.104 35.3822 89.3177 35.2992C89.5581 35.2163 89.7719 35.2578 89.9589 35.4237C91.0275 36.3639 91.6419 37.3594 91.8022 38.4102C91.9892 39.461 91.8022 40.7607 91.2412 42.3093ZM106.228 47.7431C106.282 48.0197 106.202 48.2547 105.988 48.4483C105.801 48.6142 105.574 48.6834 105.307 48.6557C104.372 48.4898 103.57 48.0058 102.902 47.2039C102.235 46.402 101.66 45.4479 101.179 44.3418C100.725 43.208 100.324 42.0604 99.9771 40.899C99.6565 39.7376 99.3626 38.7282 99.0955 37.871C98.9619 37.4562 98.7081 37.1796 98.3341 37.0414C98.1471 36.9861 98.0402 36.8755 98.0135 36.7095C98.0135 36.516 98.0803 36.3639 98.2139 36.2533C98.5345 36.0597 98.8283 36.0044 99.0955 36.0873C99.3626 36.115 99.6298 36.1427 99.8969 36.1703C100.164 36.198 100.431 36.2394 100.698 36.2947C101.259 36.3777 101.7 36.6266 102.021 37.0414C102.715 37.8157 103.25 38.7144 103.624 39.7376C104.024 40.7607 104.358 41.7977 104.626 42.8485C104.919 43.8717 105.213 44.8119 105.507 45.6692C105.641 46.0286 105.788 46.3743 105.948 46.7062C106.108 47.038 106.202 47.3837 106.228 47.7431Z" fill="#ADD0BD"/>
<path d="M73.8053 40.6962C74.0992 41.7194 74.1526 42.7564 73.9656 43.8072C73.8053 44.858 73.3645 45.6185 72.6432 46.0886C72.2158 46.3928 72.0955 46.8076 72.2825 47.333C72.3894 47.5542 72.4695 47.8031 72.523 48.0796C72.6031 48.3285 72.6432 48.5774 72.6432 48.8262C72.6966 49.4899 72.4028 49.9324 71.7616 50.1536C70.6128 50.4854 69.4374 50.679 68.2352 50.7343C67.033 50.7896 65.8842 50.8726 64.7889 50.9832C64.495 51.0108 64.1745 51.0523 63.8272 51.1076C63.5066 51.1353 63.1994 51.2182 62.9055 51.3565C62.3712 51.5224 61.8502 51.5086 61.3426 51.315C60.6748 51.0661 60.1805 50.6513 59.86 50.0706C59.5394 49.4623 59.3524 48.7986 59.2989 48.0796C59.2722 47.8307 59.339 47.6095 59.4993 47.4159C59.6596 47.1947 59.8733 47.0703 60.1405 47.0426C61.4762 46.8767 62.8521 46.6831 64.268 46.4619C65.7106 46.2407 67.22 46.0471 68.7962 45.8812C69.0099 45.8259 69.1168 45.7014 69.1168 45.5079V45.4664C69.0366 45.1898 69.0634 44.9133 69.1969 44.6368C69.4908 44.1114 69.7847 43.6136 70.0785 43.1435C70.3724 42.6458 70.6128 42.0927 70.7998 41.4843C70.9869 40.876 70.8132 40.4058 70.2789 40.074C68.5958 38.9679 66.5388 38.5393 64.1077 38.7881C63.5199 38.8158 62.9856 38.636 62.5048 38.2489C62.291 38.0553 62.0907 37.8479 61.9037 37.6267C61.7434 37.3778 61.5964 37.1151 61.4629 36.8386C61.3827 36.7003 61.3827 36.5344 61.4629 36.3408C61.5163 36.2026 61.5029 36.0505 61.4228 35.8846C61.3159 35.7186 61.2892 35.5389 61.3426 35.3453C61.3961 35.1518 61.5163 34.9997 61.7033 34.889C62.478 34.4743 63.3864 34.253 64.4283 34.2254C65.4969 34.1977 66.4853 34.2945 67.3937 34.5157C68.3287 34.7646 69.237 35.1932 70.1186 35.8016C71.0002 36.3823 71.775 37.1013 72.4428 37.9585C73.1107 38.7881 73.5649 39.7007 73.8053 40.6962ZM59.0184 43.7657C58.7513 44.0975 58.591 44.4709 58.5376 44.8857C58.4841 45.4387 58.3505 46.0471 58.1368 46.7108C57.9498 47.3744 57.7762 47.9275 57.6159 48.37C57.4823 48.7018 57.2419 48.8401 56.8946 48.7848C56.5205 48.7294 56.24 48.5497 56.053 48.2455C55.5989 47.5542 55.305 46.7384 55.1714 45.7982C55.0646 44.8304 55.0779 43.8348 55.2115 42.8117C55.3718 41.7609 55.6122 40.7653 55.9328 39.8251C56.2534 38.8849 56.6141 38.083 57.0148 37.4193C57.1484 37.2257 57.3354 37.1566 57.5758 37.2119C57.7895 37.2949 57.9498 37.4193 58.0567 37.5852C58.4574 38.1659 58.8181 38.8296 59.1386 39.5763C59.4592 40.2952 59.6329 41.028 59.6596 41.7747C59.713 42.4937 59.4993 43.1573 59.0184 43.7657Z" fill="#262626"/>
<path d="M51.0449 4.71322C51.2474 6.09518 50.8088 7.1662 49.7291 7.92628C46.0176 10.552 42.4748 13.3505 39.1007 16.3217C35.7941 19.2929 32.4538 22.1259 29.0797 24.8208C28.0675 25.5808 26.6841 26.5482 24.9296 27.7229C23.1751 28.8285 21.623 29.8649 20.2734 30.8323C19.666 31.316 19.0924 31.7997 18.5526 32.2834C18.0802 32.767 17.5404 33.1816 16.933 33.5271C16.6631 33.6653 16.3594 33.769 16.022 33.8381C15.6846 33.8381 15.3472 33.9072 15.0098 34.0454C14.8749 34.1145 14.6387 34.2872 14.3013 34.5636C14.0313 34.7709 13.7277 35.0127 13.3903 35.2891C12.7154 35.6346 12.0744 36.1529 11.467 36.8438C10.8597 37.4657 10.2186 37.984 9.54382 38.3985C9.07145 38.744 8.49785 39.0204 7.82304 39.2277C7.2157 39.435 6.67585 39.746 6.20348 40.1605C4.92133 41.1279 3.67292 41.1625 2.45826 40.2642C1.581 39.6423 0.90618 38.744 0.433809 37.5694C0.433809 37.4312 0.366328 37.2239 0.231365 36.9475C-0.038561 36.2565 -0.0723015 35.5655 0.130143 34.8745C0.332587 34.1145 0.737476 33.5271 1.34481 33.1125C8.56533 28.2757 15.5497 23.2315 22.2978 17.98C29.1135 12.7286 35.6254 7.20075 41.8337 1.39651C43.0484 0.290936 44.398 -0.158199 45.8826 0.0490968C46.5574 0.118194 47.131 0.290939 47.6034 0.56733C48.1432 0.774625 48.6494 1.05102 49.1217 1.39651C50.3364 2.29478 50.9775 3.40035 51.0449 4.71322ZM36.5702 37.1548C36.3002 39.7114 35.7604 41.9571 34.9506 43.8918C34.2083 45.8266 33.5672 47.865 33.0274 50.007C32.8249 50.698 32.4201 51.2162 31.8127 51.5617C31.2054 51.9072 30.5306 51.9418 29.7883 51.6654C28.7086 51.2508 27.7976 50.4216 27.0553 49.1778C26.3805 47.9341 26.0093 46.7249 25.9418 45.5502C25.9418 44.5828 26.1443 43.4427 26.5492 42.1298C27.0215 40.7479 27.5276 39.4005 28.0675 38.0876C28.6748 36.7056 29.1809 35.5655 29.5858 34.6672C29.9232 33.9072 30.1932 33.2162 30.3956 32.5943C30.598 31.9724 30.8342 31.3851 31.1042 30.8323C31.4416 30.2795 31.9139 29.9686 32.5213 29.8995C33.1286 29.8304 33.6347 30.0722 34.0396 30.625C34.3095 31.1087 34.5795 31.5924 34.8494 32.0761C35.1193 32.4907 35.3892 32.9052 35.6592 33.3198C36.4015 34.4945 36.7051 35.7728 36.5702 37.1548Z" fill="#262626"/>
</svg>
