<?xml version="1.0" encoding="UTF-8"?>
<svg id="_レイヤー_2" data-name="レイヤー 2" xmlns="http://www.w3.org/2000/svg" viewBox="0 0 375 339">
  <defs>
    <style>
      .cls-1 {
        fill: #909090;
        stroke-width: 0px;
      }
    </style>
  </defs>
  <g id="_レイヤー_1-2" data-name="レイヤー 1">
    <g>
      <path class="cls-1" d="M220.32,161.99s.05.07.07.11c-.01-.05-.02-.09-.03-.14l-.03.02Z"/>
      <path class="cls-1" d="M220.44,162.58s.05.02.07.04c-.02-.07-.03-.15-.05-.22,0,.06,0,.12-.02.18Z"/>
      <path class="cls-1" d="M177.7,181.49l.04-.03-.09-.04s.03.04.05.06Z"/>
      <path class="cls-1" d="M0,0v339h375V0H0ZM226.89,168.24c-.34.6-.89,1.09-1.59,1.33l-1.45.5h0c-.11.04-.23.07-.34.1-1.07.23-2.19-.16-2.88-1.04l-1.37-1.73-.46-.21c-.15-.07-.31-.08-.46-.05-.11.02-.22.08-.31.15-.09.07-.16.17-.21.29l-.28.66.11.91c.05.38-.06.75-.27,1.04-.09.13-.2.24-.33.33-.03.02-.06.04-.09.06-.14.09-.3.16-.47.19-.04,0-.09.02-.13.02h0c-.37.05-.72-.05-1.01-.24-.29-.19-.51-.49-.6-.85l-.53-2.04h0s-.02-.09-.03-.13c-.18-.85.01-1.74.53-2.44l.76-1.03-.44.09-.22-.58s-.02-.05-.05-.14c-.04-.09-.09-.23-.15-.4-.13-.34-.32-.82-.54-1.39-.44-1.13-1.02-2.59-1.58-3.9-.37-.87-.72-1.68-1.01-2.28-.16-.34-.31-.61-.4-.76-.17-.28-.52-.65-1.03-1.06-.51-.41-1.17-.85-1.95-1.31-.78-.46-1.69-.93-2.7-1.4.06.09.1.19.12.31l.56,27.5-2.65,25.26,3.31,12.63.89,5.45v.04s.03.07.04.1c.09.43.02.85-.16,1.22-.18.36-.48.67-.88.86l-11.9,5.67c-.13.06-.27.11-.4.14-.39.08-.8.03-1.15-.15-.35-.18-.64-.49-.79-.88l-.33-.85v-.05s-.02-.02-.02-.04c-.3-1.39-.21-2.69.08-3.83.29-1.14.79-2.13,1.32-2.95.6-.92,1.23-1.61,1.68-2.05l-3.96-14.32-.33-18.95-11,12.07c-.23.25-.41.54-.52.85l-6.08,16.75-3.43,5.71c-.13.22-.31.41-.52.55-.2.14-.43.24-.67.29-.34.07-.71.05-1.07-.08l-12.06-4.65c-.56-.21-.96-.68-1.07-1.24-.07-.34-.04-.71.12-1.05l.38-.81.03-.05c.65-.96,1.43-1.67,2.24-2.18.81-.51,1.66-.81,2.46-.98,1.14-.24,2.18-.23,2.95-.16.22.02.42.05.59.07l4.13-14.85c.83-2.98,2.22-5.77,4.1-8.22l5.11-6.66c.13-.16.31-.26.5-.28l-.33-.13c-.07.03-.15.06-.23.06-.33.03-.63-.17-.74-.47-.25-.17-.36-.5-.24-.79.03-.07.07-.14.12-.19l-2.2-22.17-1.81,4.83c-.28.7-.7,1.33-1.24,1.86l-.18.18-8.96,8.06-.37-.44s-.05.07-.09.1l-3.29,3.08-2.27,1.18-.56.77c-.25.35-.49.75-.74,1.14-.25.39-.52.77-.9,1.09-.25.21-.56.38-.91.46-.34.07-.71.06-1.08-.05-1.61-.44-2.81-1.75-3.15-3.35-.06-.26-.09-.53-.1-.81l-.02-.65c0-.32-.02-.62,0-.93.02-.31.09-.63.23-.95.09-.21.22-.42.38-.63h0s.51-.64.51-.64c-.08-.15-.14-.32-.17-.48-.06-.29-.06-.6.01-.9.07-.3.22-.59.43-.83l1.11-1.29c.33-.38.77-.64,1.25-.75.08-.02.16-.03.24-.04l4.85-.51-.63-.74,7.57-6.62c.53-.47.93-1.06,1.16-1.73l1.09-3.97h0c1.05-3.86,3.62-9.03,4.85-11.4,1.23-2.37,6.6-5.21,6.78-5.38-.48-.53-.92-1.1-1.29-1.7-.68-1.08-1.19-2.25-1.46-3.46-.88-.15-1.67-.53-2.31-1.08-.77-.66-1.32-1.57-1.53-2.59-.08-.4-.12-.81-.1-1.24.06-1.09.48-2.08,1.14-2.85.58-.67,1.35-1.18,2.22-1.44l.06-1.26.03-.65c.07-1.31.33-2.56.76-3.74.43-1.17,1.03-2.26,1.77-3.24,1.47-1.95,3.48-3.47,5.8-4.32,1.55-.57,3.23-.84,4.97-.75l.58.03c1.3.07,2.56.33,3.73.77,1.17.43,2.25,1.03,3.23,1.77,1.95,1.47,3.46,3.49,4.3,5.82.1.26.18.53.26.81h0c.92,2.15,3.46,2.66,3.54,3.51.07.74-1.56,2.25-3.14,2.38v.2c.46.2.89.46,1.26.79.77.66,1.32,1.57,1.53,2.59.08.4.12.81.1,1.24-.06,1.09-.48,2.08-1.14,2.85-.66.77-1.57,1.32-2.59,1.54-.22.05-.46.08-.69.09-.13.4-.46,2.61-.64,2.99-.04.08,12.75,4.44,18.49,11.93,0,0,.17.29.45.84.18.23.36.45.53.68l.03.03.02.04c.03.05,2.72,4.58,4.65,12.89.2-.17.48-.22.73-.1l2.85,1.43c.7.35,1.23.97,1.47,1.72l.08.24c.03.09.06.19.08.28.15.71.03,1.43-.31,2.03Z"/>
    </g>
  </g>
</svg>