<?xml version="1.0" encoding="UTF-8"?>
<svg id="_レイヤー_2" data-name="レイヤー 2" xmlns="http://www.w3.org/2000/svg" viewBox="0 0 1366 637">
  <defs>
    <style>
      .cls-1 {
        fill: #909090;
        stroke-width: 0px;
      }
    </style>
  </defs>
  <g id="_レイヤー_1-2" data-name="レイヤー 1">
    <g>
      <path class="cls-1" d="M638.04,352.28l.13-.09-.27-.11c.05.06.09.13.14.2Z"/>
      <path class="cls-1" d="M768.46,292.61c.08.11.15.23.21.35-.04-.14-.07-.28-.11-.42l-.1.07Z"/>
      <path class="cls-1" d="M768.82,294.41c.07.04.15.07.22.11-.05-.22-.11-.45-.16-.67,0,.19-.02.38-.06.56Z"/>
      <path class="cls-1" d="M0,0v637h1366V0H0ZM788.54,311.74c-1.03,1.84-2.72,3.33-4.85,4.07l-4.44,1.54h0c-.35.12-.7.22-1.05.29-3.27.7-6.7-.5-8.82-3.18l-4.2-5.3-1.39-.63c-.46-.21-.94-.25-1.39-.15-.35.07-.68.23-.96.46-.28.23-.5.52-.65.88l-.85,2.02.34,2.78c.14,1.17-.18,2.3-.81,3.19-.28.39-.62.73-1.02,1.02-.08.07-.17.13-.27.18-.43.27-.92.48-1.44.59-.13.03-.26.05-.39.07h0c-1.12.14-2.21-.15-3.08-.75-.87-.59-1.55-1.51-1.83-2.6l-1.63-6.25h0c-.04-.13-.07-.27-.1-.41-.55-2.6.03-5.33,1.63-7.47l2.34-3.14-1.35.29-.67-1.76s-.06-.15-.17-.43c-.11-.28-.27-.7-.47-1.22-.4-1.04-.97-2.52-1.65-4.25-1.35-3.46-3.13-7.92-4.82-11.93-1.12-2.67-2.21-5.15-3.09-6.97-.5-1.04-.94-1.86-1.23-2.33-.52-.85-1.6-2-3.15-3.25-1.55-1.25-3.57-2.6-5.96-4-2.4-1.4-5.17-2.84-8.25-4.28.18.28.31.59.36.94l1.71,84.16-8.11,77.31,10.14,38.65,2.72,16.67.03.12c.03.1.05.2.08.31.28,1.31.06,2.61-.5,3.73-.56,1.11-1.48,2.06-2.69,2.64l-36.41,17.36c-.4.19-.81.33-1.23.42-1.2.26-2.44.09-3.51-.46-1.06-.55-1.95-1.5-2.41-2.69l-1.01-2.6-.04-.17s-.01-.06-.03-.11c-.91-4.25-.65-8.22.25-11.72.9-3.5,2.42-6.53,4.04-9.02,1.83-2.81,3.77-4.94,5.14-6.28l-12.1-43.81-1.01-57.98-33.67,36.94c-.7.75-1.24,1.64-1.6,2.61l-18.61,51.26-10.49,17.48c-.41.69-.96,1.25-1.58,1.68-.62.43-1.32.72-2.05.88-1.05.22-2.19.16-3.26-.25l-36.91-14.23c-1.7-.65-2.93-2.09-3.29-3.78-.23-1.04-.11-2.19.37-3.21l1.16-2.49.1-.14c1.99-2.94,4.37-5.11,6.86-6.66,2.49-1.55,5.09-2.47,7.54-2.99,3.48-.74,6.68-.7,9.03-.48.68.06,1.28.14,1.81.22l12.64-45.43c2.53-9.11,6.79-17.64,12.53-25.14l15.62-20.39c.38-.5.94-.78,1.52-.84l-1.02-.41c-.22.1-.45.17-.69.2-1.02.1-1.94-.52-2.27-1.44-.77-.52-1.11-1.52-.75-2.42.09-.23.22-.42.37-.59l-6.72-67.84-5.53,14.77c-.86,2.13-2.16,4.07-3.8,5.68l-.55.54-27.41,24.66-1.14-1.33c-.08.11-.17.21-.27.31l-10.08,9.44-6.94,3.63-1.71,2.36c-.78,1.07-1.49,2.29-2.26,3.48-.78,1.18-1.6,2.36-2.74,3.32-.76.64-1.7,1.16-2.79,1.4-1.04.23-2.17.17-3.31-.15-4.93-1.36-8.61-5.35-9.65-10.24-.17-.8-.27-1.63-.29-2.47l-.05-1.98c-.02-.98-.06-1.89,0-2.84.07-.94.26-1.93.7-2.91.29-.65.67-1.29,1.15-1.92l.02-.02,1.56-1.93c-.24-.47-.42-.97-.53-1.48-.19-.9-.18-1.84.04-2.75.22-.91.66-1.79,1.31-2.55l3.39-3.95c1-1.17,2.35-1.96,3.83-2.28.24-.05.48-.09.73-.12l14.85-1.58-1.94-2.26,23.17-20.26c1.62-1.43,2.84-3.26,3.54-5.3l3.32-12.14h0c3.22-11.8,11.08-27.63,14.85-34.9,3.77-7.27,20.19-15.96,20.75-16.45-1.47-1.63-2.8-3.37-3.96-5.19-2.1-3.3-3.64-6.88-4.46-10.59-2.68-.45-5.1-1.62-7.05-3.31-2.35-2.03-4.03-4.8-4.69-7.94-.26-1.22-.37-2.49-.3-3.78.17-3.34,1.47-6.38,3.49-8.73,1.78-2.06,4.12-3.61,6.78-4.41l.2-3.85.1-1.98c.2-4,1.02-7.84,2.34-11.43,1.32-3.59,3.16-6.92,5.41-9.91,4.5-5.98,10.66-10.6,17.76-13.21,4.73-1.74,9.88-2.57,15.2-2.29l1.77.09c3.99.21,7.82,1.02,11.4,2.35,3.58,1.33,6.9,3.17,9.88,5.42,5.96,4.51,10.58,10.69,13.17,17.81.29.81.55,1.63.79,2.47h0c2.81,6.58,10.6,8.13,10.83,10.73.2,2.27-4.76,6.88-9.62,7.28l-.03.61c1.43.6,2.74,1.41,3.89,2.41,2.35,2.03,4.03,4.8,4.69,7.94.26,1.22.37,2.49.3,3.78-.17,3.34-1.47,6.38-3.49,8.73-2.03,2.35-4.79,4.04-7.92,4.71-.69.15-1.39.24-2.11.28-.41,1.23-1.4,7.98-1.96,9.16-.12.26,39.01,13.59,56.59,36.51,0,0,.52.87,1.39,2.58.55.69,1.09,1.39,1.63,2.09l.08.1.07.11c.09.16,8.32,14.01,14.23,39.45.6-.53,1.48-.68,2.24-.3l8.73,4.39c2.14,1.08,3.76,2.97,4.49,5.25l.24.74c.09.29.17.58.23.87.47,2.18.09,4.39-.94,6.22Z"/>
    </g>
  </g>
</svg>