<?xml version="1.0" encoding="utf-8"?>
<!-- Generator: Adobe Illustrator 27.5.0, SVG Export Plug-In . SVG Version: 6.00 Build 0)  -->
<svg version="1.1" id="レイヤー_1" xmlns="http://www.w3.org/2000/svg" xmlns:xlink="http://www.w3.org/1999/xlink" x="0px"
	 y="0px" viewBox="0 0 55.8 151.1" style="enable-background:new 0 0 55.8 151.1;" xml:space="preserve">
<style type="text/css">
	.st0{fill:#BDBDBD;stroke:#998675;stroke-width:1.4173;stroke-miterlimit:10;}
	.st1{fill:#998675;stroke:#998675;stroke-width:1.4173;stroke-miterlimit:10;}
	.st2{fill:#EDD8A4;stroke:#998675;stroke-width:1.4173;stroke-miterlimit:10;}
</style>
<g>
	<path class="st0" d="M33,30.4c-6.2,0-11.2-5-11.2-11.2S26.8,8,33,8c5.4,0,9.9,3.8,11,8.9C42.7,9.1,35.9,3.1,27.7,3.1
		c-9.1,0-16.5,7.4-16.5,16.5c0,9.1,7.4,16.5,16.5,16.5c9.1,0,16.5-7.4,16.5-16.5c0-0.1,0-0.1,0-0.2C44.1,25.5,39.1,30.4,33,30.4z"/>
	<path class="st0" d="M44.2,19.2c0-0.8-0.1-1.6-0.2-2.3c0.1,0.8,0.2,1.7,0.2,2.5C44.2,19.3,44.2,19.3,44.2,19.2z"/>
</g>
<polygon class="st0" points="27.7,79.9 21.9,64.1 27.7,48.8 33.6,64.1 "/>
<circle class="st1" cx="27.7" cy="123.5" r="25.6"/>
<g>
	<path class="st2" d="M32.8,30.4c-6.2,0-11.2-5-11.2-11.2S26.6,8,32.8,8c5,0,9.2,3.3,10.7,7.8c-1.7-6-7.2-10.5-13.7-10.5
		c-7.9,0-14.3,6.4-14.3,14.3s6.4,14.3,14.3,14.3S44,27.5,44,19.6c0-0.1,0-0.1,0-0.2C43.9,25.5,38.9,30.4,32.8,30.4z"/>
	<path class="st2" d="M44,19.2c0-1.2-0.2-2.3-0.5-3.4c0.3,1.1,0.5,2.3,0.5,3.6C44,19.3,44,19.3,44,19.2z"/>
</g>
</svg>
