<svg xmlns="http://www.w3.org/2000/svg" width="240" height="60" viewBox="0 0 240 60"><g transform="translate(-562.835 -51.128)"><g transform="translate(562.835 76.128)"><path d="M245.364,286.965h8.677l14.9,21.01,14.905-21.01h8.188v34.808h-7.606V297.255l-13,18.268h-5.5L252.97,297.255v24.518h-7.606Z" transform="translate(-245.364 -286.965)" fill="#504333"/><path d="M262.841,290.372h13.045v3.862h-3.892V310.2h3.892v3.859H262.841V310.2h3.892V294.234h-3.892Z" transform="translate(-205.178 -279.582)" fill="#504333"/><path d="M268.845,302.578c0-7.23,4.847-12.364,14.433-12.364a27.051,27.051,0,0,1,9.813,1.735v4.219a28.644,28.644,0,0,0-9.417-1.864c-6.579,0-9.427,2.944-9.427,8.274,0,5.366,2.881,8.31,9.357,8.31a20.261,20.261,0,0,0,5.7-.75v-7.167h5.26v10.173a39.574,39.574,0,0,1-11.446,1.8C274.379,314.946,268.845,310.822,268.845,302.578Z" transform="translate(-191.379 -279.946)" fill="#504333"/><path d="M279.128,290.372h5.26V310.2h12.853v3.859H279.128Z" transform="translate(-167.731 -279.582)" fill="#504333"/><path d="M286.359,290.372H299.4v3.862h-3.892V310.2H299.4v3.859H286.359V310.2h3.892V294.234h-3.892Z" transform="translate(-151.101 -279.582)" fill="#504333"/><path d="M292.363,302.578c0-6.638,4.355-12.364,13.481-12.364,9.394,0,13.481,5.594,13.481,12.364,0,6.641-4.352,12.367-13.481,12.367C296.457,314.946,292.363,309.352,292.363,302.578Zm21.53,0c0-4.448-2.257-8.208-8.049-8.208s-8.049,3.76-8.049,8.208,2.26,8.211,8.049,8.211S313.893,307.029,313.893,302.578Z" transform="translate(-137.31 -279.946)" fill="#504333"/><path d="M302.9,290.372h10.031c7.091,0,11.049,2.455,11.049,7.1,0,3.367-2.191,5.594-6.05,6.641a6.5,6.5,0,0,1,2.125,1.731l6.674,8.211h-6.575l-5.885-7.358c-1.143-1.441-1.632-1.7-4.018-1.7h-2.092v9.06H302.9Zm5.26,3.862v6.936h4.216c4.411,0,6.076-1.341,6.076-3.631,0-2.194-1.926-3.3-6.076-3.3Z" transform="translate(-113.113 -279.582)" fill="#504333"/><path d="M312.023,290.372H331.97v3.862H317.283v5.756h12.592v3.863H317.283V310.2H332.1v3.859H312.023Z" transform="translate(-92.099 -279.582)" fill="#504333"/></g><path d="M-78.136,0h1.184V-11.2h-1.184Zm13.68-8.48a3.537,3.537,0,0,0-3.2,1.616V-8.416h-1.088V0h1.136V-4.416a2.759,2.759,0,0,1,2.944-3.04c1.6,0,2.528.912,2.528,2.688V0H-61V-4.88C-61-7.3-62.408-8.48-64.456-8.48ZM-49.08-1.328A1.88,1.88,0,0,1-50.328-.9a1.348,1.348,0,0,1-1.456-1.536V-7.456h2.56v-.96h-2.56v-1.84H-52.92v1.84h-1.5v.96h1.5v5.088A2.229,2.229,0,0,0-50.456.08,2.705,2.705,0,0,0-48.68-.512Zm14.3-2.88a4.01,4.01,0,0,0-4.08-4.272,4.053,4.053,0,0,0-4.112,4.272A4.168,4.168,0,0,0-38.552.08,4.143,4.143,0,0,0-35.3-1.3l-.64-.736a3.317,3.317,0,0,1-2.576,1.1,3.115,3.115,0,0,1-3.312-2.928h7.04C-34.792-3.984-34.776-4.112-34.776-4.208Zm-4.08-3.3a2.927,2.927,0,0,1,2.992,2.8h-5.968A2.923,2.923,0,0,1-38.856-7.5Zm12.288.736V-8.416h-1.088V0h1.136V-4.288c0-1.984,1.072-3.1,2.832-3.1.08,0,.176.016.272.016v-1.1A3.174,3.174,0,0,0-26.568-6.768Zm10.576-3.488a.816.816,0,0,0,.832-.832.807.807,0,0,0-.832-.784.82.82,0,0,0-.832.8A.823.823,0,0,0-15.992-10.256ZM-16.568,0h1.136V-8.416h-1.136ZM-4.024.08A4.14,4.14,0,0,0,.248-4.208,4.127,4.127,0,0,0-4.024-8.48,4.14,4.14,0,0,0-8.312-4.208,4.153,4.153,0,0,0-4.024.08Zm0-1.008A3.081,3.081,0,0,1-7.16-4.208a3.081,3.081,0,0,1,3.136-3.28A3.069,3.069,0,0,1-.9-4.208,3.069,3.069,0,0,1-4.024-.928Zm12.48-5.84V-8.416H7.368V0H8.5V-4.288c0-1.984,1.072-3.1,2.832-3.1.08,0,.176.016.272.016v-1.1A3.174,3.174,0,0,0,8.456-6.768ZM29.832.08c2.192,0,3.472-.944,3.472-2.4,0-3.232-5.456-1.52-5.456-3.792,0-.8.672-1.392,2.192-1.392a4.314,4.314,0,0,1,2.48.72l.5-.912A5.7,5.7,0,0,0,30.04-8.48c-2.144,0-3.328,1.024-3.328,2.4,0,3.328,5.456,1.6,5.456,3.792,0,.832-.656,1.376-2.256,1.376a5.083,5.083,0,0,1-2.992-.944l-.512.9A5.622,5.622,0,0,0,29.832.08ZM44.488-8.48a3.557,3.557,0,0,0-3.152,1.536v-4.928H40.2V0h1.136V-4.416a2.759,2.759,0,0,1,2.944-3.04c1.6,0,2.528.912,2.528,2.688V0h1.136V-4.88C47.944-7.3,46.536-8.48,44.488-8.48ZM59.3.08a4.14,4.14,0,0,0,4.272-4.288A4.127,4.127,0,0,0,59.3-8.48a4.14,4.14,0,0,0-4.288,4.272A4.153,4.153,0,0,0,59.3.08Zm0-1.008a3.081,3.081,0,0,1-3.136-3.28A3.081,3.081,0,0,1,59.3-7.488a3.069,3.069,0,0,1,3.12,3.28A3.069,3.069,0,0,1,59.3-.928ZM75.032-8.48a3.666,3.666,0,0,0-3.248,1.728V-8.416H70.7V3.1h1.136V-1.584A3.676,3.676,0,0,0,75.032.08a4.076,4.076,0,0,0,4.192-4.288A4.071,4.071,0,0,0,75.032-8.48Zm-.08,7.552a3.081,3.081,0,0,1-3.136-3.28,3.09,3.09,0,0,1,3.136-3.28,3.1,3.1,0,0,1,3.136,3.28A3.09,3.09,0,0,1,74.952-.928Z" transform="translate(683 63)" fill="#333"/></g></svg>